HIERARCHY
ROOT SpineBase
{
  OFFSET 0.000000 0.000000 0.000000
  CHANNELS 6 Xposition Yposition Zposition Zrotation Xrotation Yrotation
  JOINT SpineMid
  {
    OFFSET 0.000000 28.124747 0.000000
    CHANNELS 3 Zrotation Xrotation Yrotation
    JOINT SpineShoulder
    {
      OFFSET 0.017857 20.923424 -0.691620
      CHANNELS 3 Zrotation Xrotation Yrotation
      JOINT Neck
      {
        OFFSET -0.011255 6.942102 -0.526239
        CHANNELS 3 Zrotation Xrotation Yrotation
        JOINT Head
        {
          OFFSET -1.599247 11.338000 -0.058314
          CHANNELS 3 Zrotation Xrotation Yrotation
          End Site
          {
            OFFSET 0 0 0
          }
        }
      }
      JOINT ShoulderLeft
      {
        OFFSET -16.809889 -1.921576 4.450110
        CHANNELS 3 Zrotation Xrotation Yrotation
        JOINT ElbowLeft
        {
          OFFSET -3.582490 -24.803941 1.975090
          CHANNELS 3 Zrotation Xrotation Yrotation
          JOINT WristLeft
          {
            OFFSET -0.978080 -21.127815 -4.616803
            CHANNELS 3 Zrotation Xrotation Yrotation
            JOINT HandLeft
            {
              OFFSET 0.314965 -6.849407 -2.051006
              CHANNELS 3 Zrotation Xrotation Yrotation
              JOINT HandTipLeft
              {
                OFFSET -1.027212 -6.534593 -1.868485
                CHANNELS 3 Zrotation Xrotation Yrotation
                End Site
                {
                  OFFSET 0 0 0
                }
              }
              JOINT ThumbLeft
              {
                OFFSET 3.516048 0.055800 -2.993505
                CHANNELS 3 Zrotation Xrotation Yrotation
                End Site
                {
                  OFFSET 0 0 0
                }
              }
            }
          }
        }
      }
      JOINT ShoulderRight
      {
        OFFSET 15.194569 -2.674398 -4.774073
        CHANNELS 3 Zrotation Xrotation Yrotation
        JOINT ElbowRight
        {
          OFFSET 5.883958 -24.602242 -1.421252
          CHANNELS 3 Zrotation Xrotation Yrotation
          JOINT WristRight
          {
            OFFSET 0.797988 -18.181021 -4.857759
            CHANNELS 3 Zrotation Xrotation Yrotation
            JOINT HandRight
            {
              OFFSET -1.618099 -7.767802 -0.664728
              CHANNELS 3 Zrotation Xrotation Yrotation
              JOINT HandTipRight
              {
                OFFSET -0.477836 -5.717524 -2.616236
                CHANNELS 3 Zrotation Xrotation Yrotation
                End Site
                {
                  OFFSET 0 0 0
                }
              }
              JOINT ThumbRight
              {
                OFFSET 1.209253 -3.086336 -2.978765
                CHANNELS 3 Zrotation Xrotation Yrotation
                End Site
                {
                  OFFSET 0 0 0
                }
              }
            }
          }
        }
      }
    }
  }
  JOINT HipLeft
  {
    OFFSET -5.621191 0.445852 -1.874135
    CHANNELS 3 Zrotation Xrotation Yrotation
    JOINT KneeLeft
    {
      OFFSET -3.355699 -29.244302 6.251180
      CHANNELS 3 Zrotation Xrotation Yrotation
      JOINT AnkleLeft
      {
        OFFSET 1.685099 -37.153065 7.168871
        CHANNELS 3 Zrotation Xrotation Yrotation
        JOINT FootLeft
        {
          OFFSET -1.076009 -8.041130 -4.952176
          CHANNELS 3 Zrotation Xrotation Yrotation
          End Site
          {
            OFFSET 0 0 0
          }
        }
      }
    }
  }
  JOINT HipRight
  {
    OFFSET 5.152071 0.826630 -4.549257
    CHANNELS 3 Zrotation Xrotation Yrotation
    JOINT KneeRight
    {
      OFFSET 2.836434 -28.322569 3.808885
      CHANNELS 3 Zrotation Xrotation Yrotation
      JOINT AnkleRight
      {
        OFFSET 3.086094 -42.327979 6.947878
        CHANNELS 3 Zrotation Xrotation Yrotation
        JOINT FootRight
        {
          OFFSET -4.220035 -4.111624 -8.644415
          CHANNELS 3 Zrotation Xrotation Yrotation
          End Site
          {
            OFFSET 0 0 0
          }
        }
      }
    }
  }
}
MOTION
Frames: 13
Frame Time: 0.033333
23.619887 79.665306 372.920450 2.830137 -1.382493 23.523226 0.148427 -0.266740 -23.384203 -0.396144 -0.107920 0.105042 -2.973905 -5.408107 -1.174004 0.000000 0.000000 0.000000 -1.518530 -4.728848 0.887167 -5.947436 -13.098639 0.741771 11.081052 -0.689055 -6.979806 -1.136879 15.480709 1.191082 0.000000 0.000000 0.000000 0.000000 0.000000 0.000000 116.762514 55.375784 -63.974568 168.536933 58.429592 9.713668 18.523067 -15.193672 -37.407618 -8.501968 -10.313329 40.360513 0.000000 0.000000 0.000000 0.000000 0.000000 0.000000 8.904996 2.343430 -22.217124 -4.161809 2.518505 -0.523729 -17.236217 23.685767 2.754105 0.000000 0.000000 0.000000 -1.827030 5.877281 -23.292150 4.899498 -2.681407 0.710935 3.155872 -22.605800 16.677361 0.000000 0.000000 0.000000
23.831873 79.951296 372.470642 2.852706 -1.664589 23.834290 0.050102 -0.228684 -23.689645 -0.180595 -0.084645 0.114218 -1.839314 -6.855161 -1.357342 0.000000 0.000000 0.000000 -1.162128 -4.703446 0.968310 -6.656135 -13.366739 0.758849 14.780938 0.082974 -8.880023 -7.110690 16.605127 3.655255 0.000000 0.000000 0.000000 0.000000 0.000000 0.000000 116.298379 50.910902 -59.855538 157.691851 52.391130 12.853670 18.143910 -15.457893 -38.054621 -8.201239 -6.596163 44.547963 0.000000 0.000000 0.000000 0.000000 0.000000 0.000000 8.380643 1.617691 -22.365899 -4.032670 4.494958 -0.649736 -19.160451 24.658275 3.884524 0.000000 0.000000 0.000000 -2.630898 3.174342 -23.806481 5.443365 2.361767 0.950618 3.341024 -27.870648 22.587193 0.000000 0.000000 0.000000
24.009623 80.291210 372.074530 2.801198 -2.004311 23.963639 -0.028649 -0.132679 -23.816632 -0.082033 -0.062391 0.112084 -0.608215 -7.071053 -1.357055 0.000000 0.000000 0.000000 -0.592345 -4.720404 1.067059 -6.866695 -12.987575 0.686265 17.738774 0.824483 -10.355715 -11.225934 15.641574 5.296066 0.000000 0.000000 0.000000 0.000000 0.000000 0.000000 116.296006 47.041862 -56.506965 149.981545 47.011742 14.679883 18.227564 -15.022132 -38.060953 -7.645414 -4.150343 46.979054 0.000000 0.000000 0.000000 0.000000 0.000000 0.000000 7.614649 0.947868 -22.386019 -3.315772 6.723231 -0.679397 -21.775877 26.448400 5.186772 0.000000 0.000000 0.000000 -2.647822 2.664139 -23.983295 6.470947 3.909706 1.112284 5.561026 -34.303033 33.253201 0.000000 0.000000 0.000000
24.142297 80.614768 371.653428 2.687083 -2.142613 23.462778 -0.068620 -0.132526 -23.318552 -0.103832 -0.084851 0.104463 0.085273 -6.135333 -1.235756 0.000000 0.000000 0.000000 0.100699 -4.760465 1.162363 -7.639305 -12.811579 0.714596 19.985090 2.393098 -11.501496 -13.640451 15.932238 5.655869 0.000000 0.000000 0.000000 0.000000 0.000000 0.000000 116.264490 44.412870 -54.102604 145.991078 42.853526 14.278787 18.212558 -14.839171 -38.005698 -7.915869 -3.392689 48.523281 0.000000 0.000000 0.000000 0.000000 0.000000 0.000000 6.466405 0.312554 -21.854184 -2.002503 8.409848 -0.608096 -25.065318 29.378955 6.946286 0.000000 0.000000 0.000000 -1.614533 3.033737 -23.369764 4.936938 2.413248 0.883054 4.305691 -30.230864 26.890509 0.000000 0.000000 0.000000
24.215389 80.915139 371.169735 2.517187 -1.968476 22.622322 -0.064958 -0.172739 -22.490035 -0.104118 -0.137574 0.099060 0.071013 -4.336202 -1.006939 0.000000 0.000000 0.000000 0.681806 -4.404278 1.141218 -8.411616 -13.420378 0.778796 22.012864 2.479007 -12.549450 -15.780566 18.170616 5.909116 0.000000 0.000000 0.000000 0.000000 0.000000 0.000000 116.260425 42.315452 -51.967190 142.449931 39.247955 13.884511 21.008696 -10.953112 -34.114138 -7.796776 -7.200532 44.958677 0.000000 0.000000 0.000000 0.000000 0.000000 0.000000 5.822690 -0.339114 -20.963576 -1.491175 9.020896 -0.618307 -23.864973 31.004932 6.165915 0.000000 0.000000 0.000000 -2.503098 2.346060 -22.668835 5.770104 3.237867 1.002035 2.441672 -28.710080 26.973257 0.000000 0.000000 0.000000
24.266797 81.094053 370.701241 2.424850 -1.511481 21.512238 -0.080322 -0.273175 -21.392292 -0.147471 -0.232572 0.095544 -0.397335 -3.136499 -0.829601 0.000000 0.000000 0.000000 0.727571 -4.357634 1.096026 -8.361658 -13.211192 0.790609 22.460004 0.647539 -12.532808 -15.702355 20.616674 5.605508 0.000000 0.000000 0.000000 0.000000 0.000000 0.000000 116.160316 41.419098 -50.709421 140.998333 38.011844 14.478615 21.871048 -10.184277 -33.368862 -8.236582 -6.911939 45.472921 0.000000 0.000000 0.000000 0.000000 0.000000 0.000000 5.512588 -1.013638 -19.768279 -1.149140 9.077433 -0.629591 -22.798308 29.874203 5.318743 0.000000 0.000000 0.000000 -2.824744 2.263513 -21.584268 5.863035 1.941123 0.980056 3.956656 -28.664495 26.029197 0.000000 0.000000 0.000000
24.206741 81.198317 370.210235 2.261186 -0.932783 20.622239 -0.064516 -0.419065 -20.517837 -0.168776 -0.344478 0.092110 -1.261818 -3.205687 -0.804254 0.000000 0.000000 0.000000 0.595840 -3.825381 0.940542 -8.140458 -13.495762 0.823110 22.591020 0.809538 -12.397845 -15.090840 22.172622 4.674944 0.000000 0.000000 0.000000 0.000000 0.000000 0.000000 115.435554 40.351166 -48.756686 140.280214 36.908245 15.725387 22.568012 -9.311501 -32.519066 -7.694273 -6.743848 44.555200 0.000000 0.000000 0.000000 0.000000 0.000000 0.000000 6.089944 -2.004015 -18.607963 -2.261770 9.040408 -0.865492 -24.416210 31.949278 6.895468 0.000000 0.000000 0.000000 -2.963555 1.523547 -20.741075 5.070356 1.067316 0.830427 0.303359 -19.845649 17.764421 0.000000 0.000000 0.000000
24.063349 81.250522 369.763479 1.955870 -0.519846 19.824629 -0.061965 -0.524434 -19.738332 -0.175003 -0.429980 0.080823 -1.572127 -3.044361 -0.747534 0.000000 0.000000 0.000000 0.600181 -3.005787 0.761991 -8.239405 -14.561846 0.911710 23.498351 4.037674 -12.933840 -13.055857 21.346604 2.713174 0.000000 0.000000 0.000000 0.000000 0.000000 0.000000 115.023200 39.569573 -47.300478 140.355416 36.102626 16.085025 22.719966 -8.382102 -31.608577 -6.212912 -6.395858 42.970462 0.000000 0.000000 0.000000 0.000000 0.000000 0.000000 6.958944 -2.317112 -17.664615 -3.180205 7.767804 -0.972923 -21.662839 31.047618 5.485048 0.000000 0.000000 0.000000 -2.741997 1.022092 -19.957889 4.615419 0.094723 0.723896 -3.056441 -12.151291 14.512084 0.000000 0.000000 0.000000
23.912777 81.295197 369.377348 1.641651 -0.123079 19.314391 -0.055238 -0.632542 -19.244208 -0.215915 -0.488753 0.065998 -1.657855 -3.184052 -0.725564 0.000000 0.000000 0.000000 0.563275 -2.042435 0.558113 -7.797097 -15.120278 0.947441 22.162314 4.001430 -12.049695 -9.623070 21.454553 1.023018 0.000000 0.000000 0.000000 0.000000 0.000000 0.000000 114.724492 39.113297 -46.194141 140.088960 35.405858 16.519597 23.686952 -7.054089 -30.367770 -5.573438 -8.456865 40.243553 0.000000 0.000000 0.000000 0.000000 0.000000 0.000000 8.454219 -2.425246 -16.935182 -5.053353 6.281491 -1.216493 -19.099129 30.150132 4.542267 0.000000 0.000000 0.000000 -2.422671 0.738627 -19.435149 3.151987 -1.514332 0.408304 -1.936169 -5.764245 7.952215 0.000000 0.000000 0.000000
23.764583 81.343610 368.985957 1.318613 0.307368 18.980244 -0.036582 -0.731142 -18.924737 -0.260946 -0.544779 0.050288 -1.796567 -3.470999 -0.721546 0.000000 0.000000 0.000000 0.566292 -1.417693 0.410586 -6.685162 -14.886712 0.904126 20.876194 5.117563 -11.198673 -4.918294 21.141701 -1.761368 0.000000 0.000000 0.000000 0.000000 0.000000 0.000000 114.537220 38.965792 -45.397519 139.988442 35.083854 16.883700 24.273210 -6.343057 -29.713866 -3.883106 -9.905061 37.195837 0.000000 0.000000 0.000000 0.000000 0.000000 0.000000 9.589967 -2.682540 -16.394973 -6.345309 4.986395 -1.410573 -17.158585 29.783661 3.773912 0.000000 0.000000 0.000000 -2.471602 0.011732 -19.166864 3.354570 -1.370715 0.444762 -4.141905 -4.078234 10.655135 0.000000 0.000000 0.000000
23.646983 81.373963 368.621459 1.037014 0.693214 18.920136 -0.005099 -0.776726 -18.875803 -0.301613 -0.576013 0.036041 -2.006391 -3.830113 -0.731075 0.000000 0.000000 0.000000 0.573008 -1.370447 0.353658 -5.273398 -13.938172 0.796997 18.298315 6.522955 -9.755862 -2.848247 18.126417 -2.204215 0.000000 0.000000 0.000000 0.000000 0.000000 0.000000 114.675074 38.915561 -44.908572 139.797866 35.156352 17.450241 24.753125 -5.589425 -29.028012 -3.418375 -11.216918 35.498390 0.000000 0.000000 0.000000 0.000000 0.000000 0.000000 10.410904 -3.014024 -16.149506 -7.260663 4.152895 -1.563794 -15.662762 29.702362 3.108361 0.000000 0.000000 0.000000 -2.587575 -0.166546 -19.148680 3.937589 -1.990958 0.500058 -2.488649 -8.059928 12.678436 0.000000 0.000000 0.000000
23.564173 81.400877 368.208794 0.821776 1.136489 19.102342 0.020495 -0.825872 -19.065490 -0.286387 -0.600326 0.029158 -2.419201 -4.174025 -0.747564 0.000000 0.000000 0.000000 0.612761 -1.478690 0.317827 -4.011732 -12.768434 0.657622 14.900460 7.832763 -7.926435 0.041870 13.940502 -2.546023 0.000000 0.000000 0.000000 0.000000 0.000000 0.000000 114.674085 38.887962 -44.368424 139.482247 35.144117 17.949426 24.782823 -5.699433 -29.130863 -0.502441 -14.134436 30.433000 0.000000 0.000000 0.000000 0.000000 0.000000 0.000000 10.822756 -3.634370 -16.130824 -7.822405 3.884273 -1.678631 -14.835036 29.930130 2.740159 0.000000 0.000000 0.000000 -2.698213 -0.588477 -19.374446 4.053703 -2.527945 0.484471 0.529411 -12.014878 12.847636 0.000000 0.000000 0.000000
23.401180 81.380503 368.046480 0.459865 1.233042 19.607078 0.140854 -0.764115 -19.576613 -0.849237 -0.560064 -0.031739 -1.879660 -4.111533 -0.658730 0.000000 0.000000 0.000000 1.471622 -1.670893 0.380260 -2.775629 -11.743664 0.462093 12.129930 11.160565 -6.604173 2.162473 3.472274 -1.157266 0.000000 0.000000 0.000000 0.000000 0.000000 0.000000 115.421485 38.971079 -44.108378 139.066292 35.019416 18.215147 24.447123 -6.454012 -29.872425 1.591955 -13.707521 29.181162 0.000000 0.000000 0.000000 0.000000 0.000000 0.000000 11.614493 -4.158816 -16.404876 -8.404156 4.034916 -1.813032 -14.820618 30.332099 2.733482 0.000000 0.000000 0.000000 -2.306328 -0.890741 -19.872015 3.738859 -2.585253 0.429925 4.948689 -19.070779 15.907158 0.000000 0.000000 0.000000
